# xmcd
#
# Track frame offsets:
#  150
#  13234
#  30421
#  48812
#  61839
#  75952
#  94459
#  104144
#  120850
#  140366
#  153931
#
# Disc length: 2273 seconds
#
# Revision: 0
# Processed by: cddbd v1.5.2PL0 Copyright (c) Steve Scherf et al.
# Submitted via: AltoMP3_Maker 3.0
#
DISCID=7e08df0b
DTITLE=Junior Daugherty - Honky Tonkin'
DYEAR=1900
DGENRE=
TTITLE0=Miss Molly
TTITLE1=Dreams of a Dreamer
TTITLE2=Drinkin' Champagne
TTITLE3=Ace in the Hole
TTITLE4=Springtime on the Llano
TTITLE5=Seashores of Old Mexico
TTITLE6=If You Ain't Lovin'
TTITLE7=One More Time
TTITLE8=You're Something Special
TTITLE9=Deep Water
TTITLE10=You Oughta Hear Me Cry
EXTD=
EXTT0=
EXTT1=
EXTT2=
EXTT3=
EXTT4=
EXTT5=
EXTT6=
EXTT7=
EXTT8=
EXTT9=
EXTT10=
PLAYORDER=
